<svg id="visual" viewBox="0 0 1200 100" width="1200" height="100" xmlns="http://www.w3.org/2000/svg" xmlns:xlink="http://www.w3.org/1999/xlink" version="1.1">

    <path d="M0 35L22.2 36.7C44.3 38.3 88.7 41.7 133.2 42.3C177.7 43 222.3 41 266.8 40.8C311.3 40.7 355.7 42.3 400 42.7C444.3 43 488.7 42 533.2 41.2C577.7 40.3 622.3 39.7 666.8 39.8C711.3 40 755.7 41 800 39.7C844.3 38.3 888.7 34.7 933.2 34.8C977.7 35 1022.3 39 1066.8 40.8C1111.3 42.7 1155.7 42.3 1177.8 42.2L1200 42L1200 101L1177.8 101C1155.7 101 1111.3 101 1066.8 101C1022.3 101 977.7 101 933.2 101C888.7 101 844.3 101 800 101C755.7 101 711.3 101 666.8 101C622.3 101 577.7 101 533.2 101C488.7 101 444.3 101 400 101C355.7 101 311.3 101 266.8 101C222.3 101 177.7 101 133.2 101C88.7 101 44.3 101 22.2 101L0 101Z"
    fill="#f4f5b5"> </path>

    <path d="M0 43L22.2 44.2C44.3 45.3 88.7 47.7 133.2 48.2C177.7 48.7 222.3 47.3 266.8 47.7C311.3 48 355.7 50 400 51.2C444.3 52.3 488.7 52.7 533.2 52.7C577.7 52.7 622.3 52.3 666.8 52.8C711.3 53.3 755.7 54.7 800 54.7C844.3 54.7 888.7 53.3 933.2 51.3C977.7 49.3 1022.3 46.7 1066.8 45.8C1111.3 45 1155.7 46 1177.8 46.5L1200 47L1200 101L1177.8 101C1155.7 101 1111.3 101 1066.8 101C1022.3 101 977.7 101 933.2 101C888.7 101 844.3 101 800 101C755.7 101 711.3 101 666.8 101C622.3 101 577.7 101 533.2 101C488.7 101 444.3 101 400 101C355.7 101 311.3 101 266.8 101C222.3 101 177.7 101 133.2 101C88.7 101 44.3 101 22.2 101L0 101Z"
    fill="#c8eeb6"></path>

    <path d="M0 61L22.2 62C44.3 63 88.7 65 133.2 65.7C177.7 66.3 222.3 65.7 266.8 65C311.3 64.3 355.7 63.7 400 63.5C444.3 63.3 488.7 63.7 533.2 63C577.7 62.3 622.3 60.7 666.8 60.5C711.3 60.3 755.7 61.7 800 62.5C844.3 63.3 888.7 63.7 933.2 63.5C977.7 63.3 1022.3 62.7 1066.8 61.5C1111.3 60.3 1155.7 58.7 1177.8 57.8L1200 57L1200 101L1177.8 101C1155.7 101 1111.3 101 1066.8 101C1022.3 101 977.7 101 933.2 101C888.7 101 844.3 101 800 101C755.7 101 711.3 101 666.8 101C622.3 101 577.7 101 533.2 101C488.7 101 444.3 101 400 101C355.7 101 311.3 101 266.8 101C222.3 101 177.7 101 133.2 101C88.7 101 44.3 101 22.2 101L0 101Z"
    fill="#9ce5bf"></path>

    <path d="M0 76L22.2 75C44.3 74 88.7 72 133.2 71C177.7 70 222.3 70 266.8 70.7C311.3 71.3 355.7 72.7 400 73C444.3 73.3 488.7 72.7 533.2 73C577.7 73.3 622.3 74.7 666.8 74.7C711.3 74.7 755.7 73.3 800 73.7C844.3 74 888.7 76 933.2 76.8C977.7 77.7 1022.3 77.3 1066.8 76.2C1111.3 75 1155.7 73 1177.8 72L1200 71L1200 101L1177.8 101C1155.7 101 1111.3 101 1066.8 101C1022.3 101 977.7 101 933.2 101C888.7 101 844.3 101 800 101C755.7 101 711.3 101 666.8 101C622.3 101 577.7 101 533.2 101C488.7 101 444.3 101 400 101C355.7 101 311.3 101 266.8 101C222.3 101 177.7 101 133.2 101C88.7 101 44.3 101 22.2 101L0 101Z"
        fill="#74d9cd"> </path>

    <path d="M0 83L22.2 82.8C44.3 82.7 88.7 82.3 133.2 82.3C177.7 82.3 222.3 82.7 266.8 82.5C311.3 82.3 355.7 81.7 400 81.3C444.3 81 488.7 81 533.2 81.7C577.7 82.3 622.3 83.7 666.8 83.5C711.3 83.3 755.7 81.7 800 81.3C844.3 81 888.7 82 933.2 82C977.7 82 1022.3 81 1066.8 81.2C1111.3 81.3 1155.7 82.7 1177.8 83.3L1200 84L1200 101L1177.8 101C1155.7 101 1111.3 101 1066.8 101C1022.3 101 977.7 101 933.2 101C888.7 101 844.3 101 800 101C755.7 101 711.3 101 666.8 101C622.3 101 577.7 101 533.2 101C488.7 101 444.3 101 400 101C355.7 101 311.3 101 266.8 101C222.3 101 177.7 101 133.2 101C88.7 101 44.3 101 22.2 101L0 101Z"
        fill="#59cad9"> </path>

</svg>